<svg xmlns="http://www.w3.org/2000/svg" xmlns:xlink="http://www.w3.org/1999/xlink" width="944" zoomAndPan="magnify" viewBox="0 0 708.75 567.000005" height="755" preserveAspectRatio="xMidYMid meet" version="1.0"><defs><clipPath id="69accc2503"><path d="M 167.058594 38.539062 L 589 38.539062 L 589 526 L 167.058594 526 Z M 167.058594 38.539062 " clip-rule="nonzero"/></clipPath></defs><g clip-path="url(#69accc2503)"><path fill="#000000" d="M 583.863281 502.53125 C 582.519531 500.984375 588.511719 507.800781 587.066406 506.355469 C 549.765625 467.207031 525.484375 440.558594 488.1875 401.304688 C 487.050781 400.167969 486.015625 398.828125 485.085938 397.898438 C 485.5 397.070312 485.5 396.863281 485.601562 396.761719 C 490.460938 392.320312 503.375 380.648438 508.230469 376.207031 C 509.574219 374.964844 511.125 373.3125 511.125 371.351562 C 511.125 368.976562 507.609375 370.421875 506.371094 370.628906 L 499.964844 371.867188 C 498.3125 372.175781 496.554688 372.488281 494.902344 372.898438 C 493.25 373.3125 484.464844 381.679688 483.328125 382.714844 C 483.328125 382.714844 475.992188 389.425781 475.992188 389.425781 C 471.65625 384.984375 467.417969 380.441406 463.078125 376 C 461.527344 375.894531 459.980469 376 458.429688 376.308594 C 455.640625 376.824219 452.332031 377.445312 450.164062 379.304688 C 447.890625 381.265625 447.476562 384.367188 447.167969 387.15625 C 446.960938 389.117188 446.855469 391.183594 446.445312 393.144531 C 448.714844 395.519531 451.09375 398 453.46875 400.480469 C 454.917969 402.027344 456.363281 403.679688 457.601562 405.128906 C 457.292969 405.953125 457.1875 406.265625 456.984375 406.46875 C 453.675781 409.464844 450.472656 412.460938 447.167969 415.457031 L 446.960938 415.457031 C 445.101562 417.214844 442.722656 418.554688 442.722656 421.035156 C 442.722656 423.824219 443.34375 426.820312 444.066406 429.503906 C 444.480469 431.054688 444.378906 431.15625 446.03125 431.054688 C 447.683594 430.949219 448.40625 429.917969 449.335938 429.195312 C 454.710938 424.546875 459.875 419.796875 465.457031 414.835938 C 467.109375 416.488281 468.246094 417.523438 469.382812 418.660156 C 508.230469 459.460938 526.621094 479.394531 565.472656 520.195312 C 571.566406 526.601562 577.871094 527.011719 583.964844 521.332031 C 589.960938 515.652344 590.0625 509.246094 583.964844 502.738281 Z M 568.570312 519.78125 C 563.921875 515.132812 567.125 518.335938 561.753906 512.449219 C 570.328125 512.242188 575.183594 508.109375 576.21875 498.503906 C 582.210938 505.113281 580.039062 501.914062 584.378906 507.800781 C 587.167969 511.621094 585.101562 516.582031 580.660156 520.09375 C 576.835938 523.089844 572.085938 523.292969 568.675781 519.886719 Z M 442.621094 384.054688 C 443.242188 380.441406 444.6875 377.136719 447.785156 374.964844 C 450.785156 372.898438 454.605469 371.96875 458.222656 371.351562 C 458.429688 371.351562 458.53125 371.351562 458.738281 371.351562 C 346.53125 253.597656 270.898438 163.835938 167.367188 38.953125 C 167.058594 39.78125 167.058594 40.402344 167.265625 40.917969 C 172.949219 57.753906 178.628906 74.589844 184.417969 91.425781 C 185.035156 93.183594 186.070312 94.835938 187.308594 96.28125 C 218.410156 134.085938 219.238281 138.734375 250.75 176.128906 C 312.125 249.15625 376.492188 319.601562 442.207031 388.703125 C 442.414062 387.15625 442.515625 385.707031 442.722656 384.160156 Z M 442.621094 384.054688 " fill-opacity="1" fill-rule="nonzero"/></g><path fill="#e24d26" d="M 490.5625 408.742188 L 480.023438 411.945312 L 476.304688 422.480469 L 486.84375 419.175781 Z M 490.5625 408.742188 " fill-opacity="1" fill-rule="nonzero"/><path fill="#e24d26" d="M 531.789062 450.371094 L 521.25 453.570312 L 517.53125 464.109375 L 528.171875 460.90625 Z M 531.789062 450.371094 " fill-opacity="1" fill-rule="nonzero"/><path fill="#e24d26" d="M 541.605469 461.320312 L 531.066406 464.519531 L 527.34375 475.058594 L 537.988281 471.75 Z M 541.605469 461.320312 " fill-opacity="1" fill-rule="nonzero"/><path fill="#e24d26" d="M 551.417969 472.164062 L 540.878906 475.367188 L 537.160156 485.902344 L 547.699219 482.699219 Z M 551.417969 472.164062 " fill-opacity="1" fill-rule="nonzero"/><path fill="#e24d26" d="M 561.234375 483.113281 L 550.695312 486.316406 L 546.976562 496.851562 L 557.515625 493.546875 Z M 561.234375 483.113281 " fill-opacity="1" fill-rule="nonzero"/><path fill="#e24d26" d="M 570.949219 493.960938 L 560.511719 497.160156 L 556.6875 507.699219 L 567.332031 504.496094 Z M 570.949219 493.960938 " fill-opacity="1" fill-rule="nonzero"/><path fill="#e24d26" d="M 501.410156 418.660156 L 490.871094 421.859375 L 487.152344 432.398438 L 497.691406 429.089844 Z M 501.410156 418.660156 " fill-opacity="1" fill-rule="nonzero"/><path fill="#e24d26" d="M 511.535156 429.296875 L 501 432.398438 L 497.277344 442.933594 L 507.921875 439.730469 Z M 511.535156 429.296875 " fill-opacity="1" fill-rule="nonzero"/><path fill="#e24d26" d="M 521.664062 439.835938 L 511.125 443.035156 L 507.402344 453.570312 L 518.046875 450.265625 Z M 521.664062 439.835938 " fill-opacity="1" fill-rule="nonzero"/><path fill="#e24d26" d="M 464.113281 393.351562 C 458.636719 397.691406 457.601562 403.679688 457.394531 405.023438 C 456.15625 403.578125 454.710938 402.027344 453.261719 400.375 C 450.988281 398 448.613281 395.519531 446.238281 393.042969 C 446.648438 391.078125 446.753906 389.117188 446.960938 387.050781 C 447.167969 384.261719 447.683594 381.058594 449.957031 379.199219 C 452.125 377.34375 455.433594 376.722656 458.222656 376.207031 C 459.773438 375.894531 461.425781 375.792969 462.871094 375.894531 C 467.109375 380.335938 471.449219 384.882812 475.789062 389.324219 C 474.339844 389.324219 468.96875 389.324219 464.007812 393.25 Z M 464.113281 393.351562 " fill-opacity="1" fill-rule="nonzero"/><path fill="#ffffff" d="M 561.753906 494.476562 C 561.667969 494.476562 561.59375 494.433594 561.53125 494.355469 C 561.472656 494.273438 561.441406 494.175781 561.441406 494.0625 C 561.441406 493.949219 561.472656 493.851562 561.53125 493.769531 C 561.59375 493.691406 561.667969 493.648438 561.753906 493.648438 C 561.835938 493.648438 561.910156 493.691406 561.972656 493.769531 C 562.03125 493.851562 562.0625 493.949219 562.0625 494.0625 C 562.0625 494.175781 562.03125 494.273438 561.972656 494.355469 C 561.910156 494.433594 561.835938 494.476562 561.753906 494.476562 Z M 561.753906 494.476562 " fill-opacity="1" fill-rule="nonzero"/><path fill="#ffffff" d="M 542.949219 479.1875 C 542.863281 479.1875 542.789062 479.148438 542.726562 479.066406 C 542.667969 478.988281 542.636719 478.890625 542.636719 478.777344 C 542.636719 478.660156 542.667969 478.5625 542.726562 478.484375 C 542.789062 478.402344 542.863281 478.363281 542.949219 478.363281 C 543.03125 478.363281 543.105469 478.402344 543.167969 478.484375 C 543.226562 478.5625 543.257812 478.660156 543.257812 478.777344 C 543.257812 478.890625 543.226562 478.988281 543.167969 479.066406 C 543.105469 479.148438 543.03125 479.1875 542.949219 479.1875 Z M 542.949219 479.1875 " fill-opacity="1" fill-rule="nonzero"/><path fill="#ffffff" d="M 523.625 463.488281 C 523.539062 463.488281 523.46875 463.449219 523.40625 463.367188 C 523.347656 463.285156 523.316406 463.1875 523.316406 463.074219 C 523.316406 462.960938 523.347656 462.863281 523.40625 462.78125 C 523.46875 462.703125 523.539062 462.660156 523.625 462.660156 C 523.710938 462.660156 523.785156 462.703125 523.84375 462.78125 C 523.90625 462.863281 523.9375 462.960938 523.9375 463.074219 C 523.9375 463.1875 523.90625 463.285156 523.84375 463.367188 C 523.785156 463.449219 523.710938 463.488281 523.625 463.488281 Z M 523.625 463.488281 " fill-opacity="1" fill-rule="nonzero"/><path fill="#ffffff" d="M 511.226562 453.777344 C 511.140625 453.777344 511.070312 453.738281 511.007812 453.65625 C 510.949219 453.578125 510.917969 453.480469 510.917969 453.367188 C 510.917969 453.25 510.949219 453.152344 511.007812 453.074219 C 511.070312 452.992188 511.140625 452.953125 511.226562 452.953125 C 511.3125 452.953125 511.386719 452.992188 511.445312 453.074219 C 511.507812 453.152344 511.535156 453.25 511.535156 453.367188 C 511.535156 453.480469 511.507812 453.578125 511.445312 453.65625 C 511.386719 453.738281 511.3125 453.777344 511.226562 453.777344 Z M 511.226562 453.777344 " fill-opacity="1" fill-rule="nonzero"/><path fill="#ffffff" d="M 497.898438 436.632812 C 497.8125 436.632812 497.738281 436.589844 497.679688 436.511719 C 497.617188 436.429688 497.589844 436.332031 497.589844 436.21875 C 497.589844 436.105469 497.617188 436.007812 497.679688 435.925781 C 497.738281 435.847656 497.8125 435.804688 497.898438 435.804688 C 497.984375 435.804688 498.058594 435.847656 498.117188 435.925781 C 498.179688 436.007812 498.207031 436.105469 498.207031 436.21875 C 498.207031 436.332031 498.179688 436.429688 498.117188 436.511719 C 498.058594 436.589844 497.984375 436.632812 497.898438 436.632812 Z M 497.898438 436.632812 " fill-opacity="1" fill-rule="nonzero"/><path fill="#ffffff" d="M 483.535156 415.972656 C 483.449219 415.972656 483.378906 415.933594 483.316406 415.851562 C 483.257812 415.773438 483.226562 415.675781 483.226562 415.558594 C 483.226562 415.445312 483.257812 415.347656 483.316406 415.269531 C 483.378906 415.1875 483.449219 415.148438 483.535156 415.148438 C 483.621094 415.148438 483.695312 415.1875 483.753906 415.269531 C 483.816406 415.347656 483.847656 415.445312 483.847656 415.558594 C 483.847656 415.675781 483.816406 415.773438 483.753906 415.851562 C 483.695312 415.933594 483.621094 415.972656 483.535156 415.972656 Z M 483.535156 415.972656 " fill-opacity="1" fill-rule="nonzero"/><path fill="#ffffff" d="M 470.207031 395.726562 C 470.121094 395.726562 470.050781 395.6875 469.988281 395.605469 C 469.929688 395.527344 469.898438 395.429688 469.898438 395.316406 C 469.898438 395.199219 469.929688 395.101562 469.988281 395.023438 C 470.050781 394.941406 470.121094 394.902344 470.207031 394.902344 C 470.292969 394.902344 470.367188 394.941406 470.425781 395.023438 C 470.488281 395.101562 470.519531 395.199219 470.519531 395.316406 C 470.519531 395.429688 470.488281 395.527344 470.425781 395.605469 C 470.367188 395.6875 470.292969 395.726562 470.207031 395.726562 Z M 470.207031 395.726562 " fill-opacity="1" fill-rule="nonzero"/><path fill="#ffffff" d="M 453.261719 372.488281 C 453.175781 372.488281 453.105469 372.445312 453.042969 372.367188 C 452.984375 372.285156 452.953125 372.1875 452.953125 372.074219 C 452.953125 371.960938 452.984375 371.863281 453.042969 371.78125 C 453.105469 371.699219 453.175781 371.660156 453.261719 371.660156 C 453.347656 371.660156 453.421875 371.699219 453.480469 371.78125 C 453.542969 371.863281 453.574219 371.960938 453.574219 372.074219 C 453.574219 372.1875 453.542969 372.285156 453.480469 372.367188 C 453.421875 372.445312 453.347656 372.488281 453.261719 372.488281 Z M 453.261719 372.488281 " fill-opacity="1" fill-rule="nonzero"/><path fill="#ffffff" d="M 450.679688 366.804688 C 450.59375 366.804688 450.519531 366.765625 450.460938 366.683594 C 450.398438 366.605469 450.371094 366.507812 450.371094 366.394531 C 450.371094 366.277344 450.398438 366.179688 450.460938 366.101562 C 450.519531 366.019531 450.59375 365.980469 450.679688 365.980469 C 450.765625 365.980469 450.839844 366.019531 450.898438 366.101562 C 450.960938 366.179688 450.988281 366.277344 450.988281 366.394531 C 450.988281 366.507812 450.960938 366.605469 450.898438 366.683594 C 450.839844 366.765625 450.765625 366.804688 450.679688 366.804688 Z M 450.679688 366.804688 " fill-opacity="1" fill-rule="nonzero"/><path fill="#ffffff" d="M 465.351562 381.578125 C 465.265625 381.578125 465.191406 381.535156 465.132812 381.457031 C 465.070312 381.375 465.042969 381.277344 465.042969 381.164062 C 465.042969 381.050781 465.070312 380.953125 465.132812 380.871094 C 465.191406 380.789062 465.265625 380.75 465.351562 380.75 C 465.4375 380.75 465.511719 380.789062 465.570312 380.871094 C 465.632812 380.953125 465.660156 381.050781 465.660156 381.164062 C 465.660156 381.277344 465.632812 381.375 465.570312 381.457031 C 465.511719 381.535156 465.4375 381.578125 465.351562 381.578125 Z M 465.351562 381.578125 " fill-opacity="1" fill-rule="nonzero"/><path fill="#ffffff" d="M 511.847656 422.789062 C 511.761719 422.789062 511.6875 422.75 511.628906 422.667969 C 511.566406 422.589844 511.535156 422.492188 511.535156 422.378906 C 511.535156 422.261719 511.566406 422.167969 511.628906 422.085938 C 511.6875 422.003906 511.761719 421.964844 511.847656 421.964844 C 511.933594 421.964844 512.003906 422.003906 512.066406 422.085938 C 512.125 422.167969 512.15625 422.261719 512.15625 422.378906 C 512.15625 422.492188 512.125 422.589844 512.066406 422.667969 C 512.003906 422.75 511.933594 422.789062 511.847656 422.789062 Z M 511.847656 422.789062 " fill-opacity="1" fill-rule="nonzero"/><path fill="#ffffff" d="M 526.621094 436.21875 C 526.535156 436.21875 526.464844 436.179688 526.402344 436.097656 C 526.34375 436.015625 526.3125 435.917969 526.3125 435.804688 C 526.3125 435.691406 526.34375 435.59375 526.402344 435.511719 C 526.464844 435.433594 526.535156 435.390625 526.621094 435.390625 C 526.707031 435.390625 526.78125 435.433594 526.839844 435.511719 C 526.902344 435.59375 526.933594 435.691406 526.933594 435.804688 C 526.933594 435.917969 526.902344 436.015625 526.839844 436.097656 C 526.78125 436.179688 526.707031 436.21875 526.621094 436.21875 Z M 526.621094 436.21875 " fill-opacity="1" fill-rule="nonzero"/><path fill="#ffffff" d="M 547.183594 465.242188 C 547.097656 465.242188 547.023438 465.203125 546.964844 465.121094 C 546.902344 465.042969 546.875 464.945312 546.875 464.832031 C 546.875 464.714844 546.902344 464.621094 546.964844 464.539062 C 547.023438 464.457031 547.097656 464.417969 547.183594 464.417969 C 547.269531 464.417969 547.34375 464.457031 547.402344 464.539062 C 547.464844 464.621094 547.492188 464.714844 547.492188 464.832031 C 547.492188 464.945312 547.464844 465.042969 547.402344 465.121094 C 547.34375 465.203125 547.269531 465.242188 547.183594 465.242188 Z M 547.183594 465.242188 " fill-opacity="1" fill-rule="nonzero"/><path fill="#ffffff" d="M 563.507812 487.140625 C 563.421875 487.140625 563.351562 487.101562 563.289062 487.019531 C 563.230469 486.941406 563.199219 486.84375 563.199219 486.730469 C 563.199219 486.613281 563.230469 486.515625 563.289062 486.4375 C 563.351562 486.355469 563.421875 486.316406 563.507812 486.316406 C 563.59375 486.316406 563.667969 486.355469 563.726562 486.4375 C 563.789062 486.515625 563.820312 486.613281 563.820312 486.730469 C 563.820312 486.84375 563.789062 486.941406 563.726562 487.019531 C 563.667969 487.101562 563.59375 487.140625 563.507812 487.140625 Z M 563.507812 487.140625 " fill-opacity="1" fill-rule="nonzero"/><path fill="#ffffff" d="M 576.320312 509.660156 C 576.234375 509.660156 576.160156 509.621094 576.101562 509.539062 C 576.039062 509.457031 576.011719 509.359375 576.011719 509.246094 C 576.011719 509.132812 576.039062 509.035156 576.101562 508.953125 C 576.160156 508.875 576.234375 508.832031 576.320312 508.832031 C 576.40625 508.832031 576.480469 508.875 576.539062 508.953125 C 576.601562 509.035156 576.628906 509.132812 576.628906 509.246094 C 576.628906 509.359375 576.601562 509.457031 576.539062 509.539062 C 576.480469 509.621094 576.40625 509.660156 576.320312 509.660156 Z M 576.320312 509.660156 " fill-opacity="1" fill-rule="nonzero"/><path fill="#ffffff" d="M 583.761719 520.917969 C 583.675781 520.917969 583.601562 520.878906 583.539062 520.796875 C 583.480469 520.71875 583.449219 520.621094 583.449219 520.503906 C 583.449219 520.390625 583.480469 520.292969 583.539062 520.214844 C 583.601562 520.132812 583.675781 520.09375 583.761719 520.09375 C 583.84375 520.09375 583.917969 520.132812 583.980469 520.214844 C 584.039062 520.292969 584.070312 520.390625 584.070312 520.503906 C 584.070312 520.621094 584.039062 520.71875 583.980469 520.796875 C 583.917969 520.878906 583.84375 520.917969 583.761719 520.917969 Z M 583.761719 520.917969 " fill-opacity="1" fill-rule="nonzero"/><path fill="#ffffff" d="M 554.933594 488.898438 C 554.847656 488.898438 554.773438 488.859375 554.714844 488.777344 C 554.652344 488.695312 554.621094 488.597656 554.621094 488.484375 C 554.621094 488.371094 554.652344 488.273438 554.714844 488.191406 C 554.773438 488.113281 554.847656 488.070312 554.933594 488.070312 C 555.019531 488.070312 555.089844 488.113281 555.152344 488.191406 C 555.210938 488.273438 555.242188 488.371094 555.242188 488.484375 C 555.242188 488.597656 555.210938 488.695312 555.152344 488.777344 C 555.089844 488.859375 555.019531 488.898438 554.933594 488.898438 Z M 554.933594 488.898438 " fill-opacity="1" fill-rule="nonzero"/><path fill="#ffffff" d="M 473.308594 387.671875 C 473.222656 387.671875 473.148438 387.628906 473.089844 387.550781 C 473.027344 387.46875 472.996094 387.371094 472.996094 387.257812 C 472.996094 387.144531 473.027344 387.046875 473.089844 386.964844 C 473.148438 386.886719 473.222656 386.84375 473.308594 386.84375 C 473.394531 386.84375 473.464844 386.886719 473.527344 386.964844 C 473.585938 387.046875 473.617188 387.144531 473.617188 387.257812 C 473.617188 387.371094 473.585938 387.46875 473.527344 387.550781 C 473.464844 387.628906 473.394531 387.671875 473.308594 387.671875 Z M 473.308594 387.671875 " fill-opacity="1" fill-rule="nonzero"/><path fill="#ffffff" d="M 444.378906 359.367188 C 444.292969 359.367188 444.21875 359.328125 444.15625 359.246094 C 444.097656 359.167969 444.066406 359.070312 444.066406 358.957031 C 444.066406 358.839844 444.097656 358.746094 444.15625 358.664062 C 444.21875 358.582031 444.292969 358.542969 444.378906 358.542969 C 444.460938 358.542969 444.535156 358.582031 444.597656 358.664062 C 444.65625 358.746094 444.6875 358.839844 444.6875 358.957031 C 444.6875 359.070312 444.65625 359.167969 444.597656 359.246094 C 444.535156 359.328125 444.460938 359.367188 444.378906 359.367188 Z M 444.378906 359.367188 " fill-opacity="1" fill-rule="nonzero"/><path fill="#ffffff" d="M 421.644531 341.808594 C 421.5625 341.808594 421.488281 341.769531 421.425781 341.6875 C 421.367188 341.609375 421.335938 341.511719 421.335938 341.394531 C 421.335938 341.28125 421.367188 341.183594 421.425781 341.105469 C 421.488281 341.023438 421.5625 340.984375 421.644531 340.984375 C 421.730469 340.984375 421.804688 341.023438 421.867188 341.105469 C 421.925781 341.183594 421.957031 341.28125 421.957031 341.394531 C 421.957031 341.511719 421.925781 341.609375 421.867188 341.6875 C 421.804688 341.769531 421.730469 341.808594 421.644531 341.808594 Z M 421.644531 341.808594 " fill-opacity="1" fill-rule="nonzero"/><path fill="#ffffff" d="M 405.835938 315.984375 C 405.753906 315.984375 405.679688 315.945312 405.617188 315.863281 C 405.558594 315.785156 405.527344 315.6875 405.527344 315.574219 C 405.527344 315.457031 405.558594 315.359375 405.617188 315.28125 C 405.679688 315.199219 405.753906 315.160156 405.835938 315.160156 C 405.921875 315.160156 405.996094 315.199219 406.058594 315.28125 C 406.117188 315.359375 406.148438 315.457031 406.148438 315.574219 C 406.148438 315.6875 406.117188 315.785156 406.058594 315.863281 C 405.996094 315.945312 405.921875 315.984375 405.835938 315.984375 Z M 405.835938 315.984375 " fill-opacity="1" fill-rule="nonzero"/><path fill="#ffffff" d="M 379.59375 283.035156 C 379.507812 283.035156 379.433594 282.996094 379.375 282.914062 C 379.3125 282.832031 379.285156 282.738281 379.285156 282.621094 C 379.285156 282.507812 379.3125 282.410156 379.375 282.332031 C 379.433594 282.25 379.507812 282.210938 379.59375 282.210938 C 379.679688 282.210938 379.753906 282.25 379.8125 282.332031 C 379.875 282.410156 379.902344 282.507812 379.902344 282.621094 C 379.902344 282.738281 379.875 282.832031 379.8125 282.914062 C 379.753906 282.996094 379.679688 283.035156 379.59375 283.035156 Z M 379.59375 283.035156 " fill-opacity="1" fill-rule="nonzero"/><path fill="#ffffff" d="M 368.125 274.773438 C 368.039062 274.773438 367.964844 274.730469 367.90625 274.652344 C 367.84375 274.570312 367.816406 274.472656 367.816406 274.359375 C 367.816406 274.246094 367.84375 274.148438 367.90625 274.066406 C 367.964844 273.984375 368.039062 273.945312 368.125 273.945312 C 368.210938 273.945312 368.285156 273.984375 368.34375 274.066406 C 368.40625 274.148438 368.433594 274.246094 368.433594 274.359375 C 368.433594 274.472656 368.40625 274.570312 368.34375 274.652344 C 368.285156 274.730469 368.210938 274.773438 368.125 274.773438 Z M 368.125 274.773438 " fill-opacity="1" fill-rule="nonzero"/><path fill="#ffffff" d="M 347.460938 257.832031 C 347.375 257.832031 347.300781 257.792969 347.242188 257.710938 C 347.179688 257.628906 347.148438 257.53125 347.148438 257.417969 C 347.148438 257.304688 347.179688 257.207031 347.242188 257.125 C 347.300781 257.046875 347.375 257.003906 347.460938 257.003906 C 347.546875 257.003906 347.617188 257.046875 347.679688 257.125 C 347.738281 257.207031 347.769531 257.304688 347.769531 257.417969 C 347.769531 257.53125 347.738281 257.628906 347.679688 257.710938 C 347.617188 257.792969 347.546875 257.832031 347.460938 257.832031 Z M 347.460938 257.832031 " fill-opacity="1" fill-rule="nonzero"/><path fill="#ffffff" d="M 323.488281 226.429688 C 323.402344 226.429688 323.332031 226.390625 323.269531 226.308594 C 323.210938 226.230469 323.179688 226.132812 323.179688 226.019531 C 323.179688 225.902344 323.210938 225.804688 323.269531 225.726562 C 323.332031 225.644531 323.402344 225.605469 323.488281 225.605469 C 323.574219 225.605469 323.648438 225.644531 323.707031 225.726562 C 323.769531 225.804688 323.800781 225.902344 323.800781 226.019531 C 323.800781 226.132812 323.769531 226.230469 323.707031 226.308594 C 323.648438 226.390625 323.574219 226.429688 323.488281 226.429688 Z M 323.488281 226.429688 " fill-opacity="1" fill-rule="nonzero"/><path fill="#ffffff" d="M 311.296875 209.179688 C 311.210938 209.179688 311.140625 209.140625 311.078125 209.058594 C 311.019531 208.980469 310.988281 208.882812 310.988281 208.769531 C 310.988281 208.652344 311.019531 208.554688 311.078125 208.476562 C 311.140625 208.394531 311.210938 208.355469 311.296875 208.355469 C 311.382812 208.355469 311.457031 208.394531 311.515625 208.476562 C 311.578125 208.554688 311.605469 208.652344 311.605469 208.769531 C 311.605469 208.882812 311.578125 208.980469 311.515625 209.058594 C 311.457031 209.140625 311.382812 209.179688 311.296875 209.179688 Z M 311.296875 209.179688 " fill-opacity="1" fill-rule="nonzero"/><path fill="#ffffff" d="M 288.257812 193.585938 C 288.171875 193.585938 288.097656 193.542969 288.039062 193.464844 C 287.976562 193.382812 287.945312 193.285156 287.945312 193.171875 C 287.945312 193.058594 287.976562 192.960938 288.039062 192.878906 C 288.097656 192.796875 288.171875 192.757812 288.257812 192.757812 C 288.34375 192.757812 288.414062 192.796875 288.476562 192.878906 C 288.535156 192.960938 288.566406 193.058594 288.566406 193.171875 C 288.566406 193.285156 288.535156 193.382812 288.476562 193.464844 C 288.414062 193.542969 288.34375 193.585938 288.257812 193.585938 Z M 288.257812 193.585938 " fill-opacity="1" fill-rule="nonzero"/><path fill="#ffffff" d="M 268.523438 176.335938 C 268.4375 176.335938 268.363281 176.292969 268.300781 176.214844 C 268.242188 176.132812 268.210938 176.035156 268.210938 175.921875 C 268.210938 175.808594 268.242188 175.710938 268.300781 175.628906 C 268.363281 175.546875 268.4375 175.507812 268.523438 175.507812 C 268.605469 175.507812 268.679688 175.546875 268.742188 175.628906 C 268.800781 175.710938 268.832031 175.808594 268.832031 175.921875 C 268.832031 176.035156 268.800781 176.132812 268.742188 176.214844 C 268.679688 176.292969 268.605469 176.335938 268.523438 176.335938 Z M 268.523438 176.335938 " fill-opacity="1" fill-rule="nonzero"/><path fill="#ffffff" d="M 244.550781 139.148438 C 244.464844 139.148438 244.390625 139.109375 244.332031 139.027344 C 244.269531 138.945312 244.242188 138.851562 244.242188 138.734375 C 244.242188 138.621094 244.269531 138.523438 244.332031 138.445312 C 244.390625 138.363281 244.464844 138.324219 244.550781 138.324219 C 244.636719 138.324219 244.710938 138.363281 244.769531 138.445312 C 244.832031 138.523438 244.859375 138.621094 244.859375 138.734375 C 244.859375 138.851562 244.832031 138.945312 244.769531 139.027344 C 244.710938 139.109375 244.636719 139.148438 244.550781 139.148438 Z M 244.550781 139.148438 " fill-opacity="1" fill-rule="nonzero"/><path fill="#ffffff" d="M 229.050781 118.386719 C 228.964844 118.386719 228.894531 118.347656 228.832031 118.265625 C 228.773438 118.183594 228.742188 118.085938 228.742188 117.972656 C 228.742188 117.859375 228.773438 117.761719 228.832031 117.679688 C 228.894531 117.601562 228.964844 117.558594 229.050781 117.5625 C 229.136719 117.558594 229.210938 117.601562 229.273438 117.679688 C 229.332031 117.761719 229.363281 117.859375 229.363281 117.972656 C 229.363281 118.085938 229.332031 118.183594 229.273438 118.265625 C 229.210938 118.347656 229.136719 118.386719 229.050781 118.386719 Z M 229.050781 118.386719 " fill-opacity="1" fill-rule="nonzero"/><path fill="#ffffff" d="M 220.0625 108.367188 C 219.976562 108.367188 219.90625 108.328125 219.84375 108.246094 C 219.785156 108.164062 219.753906 108.070312 219.753906 107.953125 C 219.753906 107.839844 219.785156 107.742188 219.84375 107.664062 C 219.90625 107.582031 219.976562 107.542969 220.0625 107.542969 C 220.148438 107.542969 220.222656 107.582031 220.28125 107.664062 C 220.34375 107.742188 220.375 107.839844 220.375 107.953125 C 220.375 108.070312 220.34375 108.164062 220.28125 108.246094 C 220.222656 108.328125 220.148438 108.367188 220.0625 108.367188 Z M 220.0625 108.367188 " fill-opacity="1" fill-rule="nonzero"/><path fill="#ffffff" d="M 206.835938 86.78125 C 206.753906 86.777344 206.679688 86.738281 206.617188 86.660156 C 206.558594 86.578125 206.527344 86.480469 206.527344 86.367188 C 206.527344 86.253906 206.558594 86.15625 206.617188 86.074219 C 206.679688 85.992188 206.753906 85.953125 206.835938 85.953125 C 206.921875 85.953125 206.996094 85.992188 207.058594 86.074219 C 207.117188 86.15625 207.148438 86.253906 207.148438 86.367188 C 207.148438 86.480469 207.117188 86.578125 207.058594 86.660156 C 206.996094 86.738281 206.921875 86.777344 206.835938 86.78125 Z M 206.835938 86.78125 " fill-opacity="1" fill-rule="nonzero"/><path fill="#ffffff" d="M 197.023438 74.589844 C 196.9375 74.589844 196.863281 74.550781 196.804688 74.46875 C 196.742188 74.390625 196.710938 74.292969 196.710938 74.175781 C 196.710938 74.0625 196.742188 73.964844 196.804688 73.886719 C 196.863281 73.804688 196.9375 73.765625 197.023438 73.765625 C 197.109375 73.765625 197.179688 73.804688 197.242188 73.886719 C 197.300781 73.964844 197.332031 74.0625 197.332031 74.175781 C 197.332031 74.292969 197.300781 74.390625 197.242188 74.46875 C 197.179688 74.550781 197.109375 74.589844 197.023438 74.589844 Z M 197.023438 74.589844 " fill-opacity="1" fill-rule="nonzero"/><path fill="#ffffff" d="M 183.488281 55.792969 C 183.402344 55.792969 183.328125 55.75 183.269531 55.671875 C 183.207031 55.589844 183.175781 55.492188 183.175781 55.378906 C 183.175781 55.265625 183.207031 55.167969 183.269531 55.085938 C 183.328125 55.003906 183.402344 54.964844 183.488281 54.964844 C 183.574219 54.964844 183.644531 55.003906 183.707031 55.085938 C 183.765625 55.167969 183.796875 55.265625 183.796875 55.378906 C 183.796875 55.492188 183.765625 55.589844 183.707031 55.671875 C 183.644531 55.75 183.574219 55.792969 183.488281 55.792969 Z M 183.488281 55.792969 " fill-opacity="1" fill-rule="nonzero"/><path fill="#ffffff" d="M 183.382812 65.085938 C 183.296875 65.085938 183.226562 65.046875 183.164062 64.96875 C 183.105469 64.886719 183.074219 64.789062 183.074219 64.675781 C 183.074219 64.5625 183.105469 64.464844 183.164062 64.382812 C 183.226562 64.300781 183.296875 64.261719 183.382812 64.261719 C 183.46875 64.261719 183.542969 64.300781 183.601562 64.382812 C 183.664062 64.464844 183.695312 64.5625 183.695312 64.675781 C 183.695312 64.789062 183.664062 64.886719 183.601562 64.964844 C 183.542969 65.046875 183.46875 65.085938 183.382812 65.085938 Z M 183.382812 65.085938 " fill-opacity="1" fill-rule="nonzero"/><path fill="#ffffff" d="M 218.511719 122.414062 C 218.429688 122.414062 218.355469 122.375 218.292969 122.292969 C 218.234375 122.214844 218.203125 122.117188 218.203125 122.003906 C 218.203125 121.886719 218.234375 121.789062 218.292969 121.710938 C 218.355469 121.628906 218.429688 121.589844 218.511719 121.589844 C 218.597656 121.589844 218.671875 121.628906 218.734375 121.710938 C 218.792969 121.789062 218.824219 121.886719 218.824219 122.003906 C 218.824219 122.117188 218.792969 122.214844 218.734375 122.292969 C 218.671875 122.375 218.597656 122.414062 218.511719 122.414062 Z M 218.511719 122.414062 " fill-opacity="1" fill-rule="nonzero"/><path fill="#ffffff" d="M 270.898438 187.800781 C 270.8125 187.800781 270.738281 187.757812 270.679688 187.679688 C 270.617188 187.597656 270.589844 187.5 270.589844 187.386719 C 270.589844 187.273438 270.617188 187.175781 270.679688 187.09375 C 270.738281 187.011719 270.8125 186.972656 270.898438 186.972656 C 270.984375 186.972656 271.058594 187.011719 271.117188 187.09375 C 271.179688 187.175781 271.207031 187.273438 271.207031 187.386719 C 271.207031 187.5 271.179688 187.597656 271.117188 187.679688 C 271.058594 187.757812 270.984375 187.800781 270.898438 187.800781 Z M 270.898438 187.800781 " fill-opacity="1" fill-rule="nonzero"/><path fill="#ffffff" d="M 302.410156 224.261719 C 302.324219 224.261719 302.253906 224.222656 302.191406 224.140625 C 302.132812 224.058594 302.101562 223.964844 302.101562 223.847656 C 302.101562 223.734375 302.132812 223.636719 302.191406 223.558594 C 302.253906 223.476562 302.324219 223.4375 302.410156 223.4375 C 302.496094 223.4375 302.570312 223.476562 302.628906 223.558594 C 302.691406 223.636719 302.722656 223.734375 302.722656 223.847656 C 302.722656 223.964844 302.691406 224.058594 302.628906 224.140625 C 302.570312 224.222656 302.496094 224.261719 302.410156 224.261719 Z M 302.410156 224.261719 " fill-opacity="1" fill-rule="nonzero"/><path fill="#ffffff" d="M 343.949219 258.039062 C 343.863281 258.039062 343.789062 258 343.726562 257.917969 C 343.667969 257.835938 343.636719 257.738281 343.636719 257.625 C 343.636719 257.511719 343.667969 257.414062 343.726562 257.332031 C 343.789062 257.253906 343.863281 257.210938 343.949219 257.210938 C 344.03125 257.210938 344.105469 257.253906 344.167969 257.332031 C 344.226562 257.414062 344.257812 257.511719 344.257812 257.625 C 344.257812 257.738281 344.226562 257.835938 344.167969 257.917969 C 344.105469 258 344.03125 258.039062 343.949219 258.039062 Z M 343.949219 258.039062 " fill-opacity="1" fill-rule="nonzero"/><path fill="#ffffff" d="M 377.941406 288.921875 C 377.855469 288.921875 377.78125 288.882812 377.722656 288.800781 C 377.660156 288.722656 377.628906 288.625 377.628906 288.511719 C 377.628906 288.394531 377.660156 288.296875 377.722656 288.21875 C 377.78125 288.136719 377.855469 288.097656 377.941406 288.097656 C 378.027344 288.097656 378.097656 288.136719 378.160156 288.21875 C 378.21875 288.296875 378.25 288.394531 378.25 288.511719 C 378.25 288.625 378.21875 288.722656 378.160156 288.800781 C 378.097656 288.882812 378.027344 288.921875 377.941406 288.921875 Z M 377.941406 288.921875 " fill-opacity="1" fill-rule="nonzero"/><path fill="#ffffff" d="M 411.726562 333.234375 C 411.640625 333.234375 411.570312 333.195312 411.507812 333.113281 C 411.449219 333.035156 411.417969 332.9375 411.417969 332.824219 C 411.417969 332.707031 411.449219 332.609375 411.507812 332.53125 C 411.570312 332.449219 411.640625 332.410156 411.726562 332.410156 C 411.8125 332.410156 411.886719 332.449219 411.945312 332.53125 C 412.007812 332.609375 412.039062 332.707031 412.039062 332.824219 C 412.039062 332.9375 412.007812 333.035156 411.945312 333.113281 C 411.886719 333.195312 411.8125 333.234375 411.726562 333.234375 Z M 411.726562 333.234375 " fill-opacity="1" fill-rule="nonzero"/></svg>